<svg width="24" height="24" viewBox="0 0 24 24" fill="none" xmlns="http://www.w3.org/2000/svg">
<path d="M20.9745 15.5556C20.3716 17.2238 19.3532 18.7145 18.0016 19.9068C16.65 21.0992 15.0032 21.9598 13.1946 22.419C11.3859 22.8782 9.46624 22.923 7.59097 22.5498C5.71569 22.1766 3.93751 21.396 2.40039 20.271C4.97426 20.4397 7.49625 19.8308 9.59949 18.5329C11.7027 17.2351 13.2775 15.316 14.0948 13.0548C14.912 10.7937 14.9291 8.30836 14.1435 5.96044C13.358 3.61251 11.8107 1.52446 9.72689 0C11.6258 0.124041 13.4897 0.667312 15.1679 1.58583C16.8461 2.50435 18.2913 3.77229 19.3865 5.28702C20.4818 6.80175 21.1962 8.52068 21.4721 10.3046C21.748 12.0886 21.5775 13.8875 20.9745 15.5556Z" fill="#121212"/>
</svg>
